<svg version="1.1" id="Layer_1" xmlns:x="ns_extend;" xmlns:i="ns_ai;" xmlns:graph="ns_graphs;" xmlns="http://www.w3.org/2000/svg" xmlns:xlink="http://www.w3.org/1999/xlink" x="0px" y="0px" viewBox="0 0 344.4 79.9" style="enable-background:new 0 0 344.4 79.9;" xml:space="preserve">
 <style type="text/css">
  .st0{fill:#FFFFFF;}
 </style>
 <metadata>
  <sfw xmlns="ns_sfw;">
   <slices>
   </slices>
   <sliceSourceBounds bottomLeftOrigin="true" height="79.9" width="344.4" x="0" y="179">
   </sliceSourceBounds>
  </sfw>
 </metadata>
 <g>
  <g>
   <g>
    <path class="st0" d="M238.7,27.5l-5,6.1c-2.2-2.2-5.1-3.4-8.2-3.5c-2.6,0-3.9,0.9-3.9,2.6c0,1.4,1,2.1,3.8,3.2l3.5,1.5
				c7.1,2.9,10.2,5.7,10.2,11.1c0.1,3.3-1.4,6.5-4,8.5c-2.6,2.1-6,3.1-10.1,3.1c-6.5,0-11.5-2.3-15.1-7.1l5-6
				c3.2,3.3,6.6,4.9,10.2,4.9c2.6,0,4.6-1,4.6-3c0-1.5-1-2.1-3.8-3.3l-3.9-1.6c-6.7-2.7-9.9-5.7-9.9-11.1c0-6.8,5.4-11,13.4-11
				C231,22,235.3,23.9,238.7,27.5z M166.9,23.2h-9.1v3.9c-5-6.3-17.6-6.9-24.4,0.6c-6.5,7.1-6.8,19.9,0,27.3
				c6.8,7.4,19.4,6.8,24.4,0.6v3.9h9.1L166.9,23.2L166.9,23.2z M147.9,51.3c-12.5,0-12.6-20,0-20C160.1,31.4,160.2,51.3,147.9,51.3z
				 M85.4,70.8h9.1V55.6c5,6.3,17.6,6.9,24.4-0.6c6.8-7.4,6.5-20.2,0-27.3c-6.8-7.4-19.4-6.8-24.4-0.6v-3.9h-9.1V70.8z M104.4,31.4
				c12.5,0,12.5,20,0,20C92.1,51.4,92.2,31.4,104.4,31.4L104.4,31.4L104.4,31.4z M344.3,23h-9.1v3.9c-5-6.3-17.6-6.9-24.4,0.6
				c-6.5,7.1-6.8,19.9,0,27.3c6.8,7.4,19.4,6.8,24.4,0.6v4h9.1L344.3,23z M325.3,51.2c-12.5,0-12.5-20,0-20
				C337.6,31.2,337.6,51.2,325.3,51.2z M200.2,22.9l-9.5,23.9l-8.9-23.9h-10.5l14,34.3c-0.4,2.4-2.4,5.2-8.9,5.3v8.6
				c8.4,0.6,14.7-3.7,17.6-10.5l16.6-37.6L200.2,22.9L200.2,22.9z M302.9,31.9v-9.5c-1-0.1-2-0.2-3.1-0.2c-4.4-0.1-8.7,1.5-11.9,4.6
				c-3.2,3.2-4.8,7.2-4.8,12.3v20.4h10V38.7c-0.2-3.7,2.7-6.8,6.4-7c0.1,0,0.3,0,0.4,0C300.9,31.7,301.9,31.8,302.9,31.9L302.9,31.9
				z M261.3,22.1c-10.5,0-19.1,8.6-19,19.1c0,1.3,0.1,2.5,0.4,3.8c0.8,3.7,2.6,7.1,5.3,9.8c7.9,7.6,21.6,6.7,28.5,1l-3.8-7.1
				c-5.2,4-17.9,5.4-20.5-4.2h26c0.2-3.7,0.9-8.9-1.9-13.9C271.7,22.1,263.2,22.1,261.3,22.1L261.3,22.1z M260.9,30.1
				c4.2,0,7.5,2.7,7.8,6.9h-16.4C253.6,32.8,256.9,30.1,260.9,30.1L260.9,30.1z M48,33.9c-1.3,8.4-8.5,14.7-17.1,14.8
				C13.8,48.9,0,62.8,0,79.9h13.6c-0.1-9.6,7.7-17.5,17.3-17.6c16-0.1,29.4-12.4,30.8-28.4L48,33.9L48,33.9z M0,33.9v28
				c3.2-5.6,7.9-10.2,13.6-13.4V33.9L0,33.9L0,33.9z M30.9,13.5c8.7,0.1,16,6.5,17.1,15.1h13.7C60.5,12.6,47.1,0.1,31,0
				C14.8,0.1,1.4,12.6,0.1,28.7h13.7C15,20.1,22.3,13.7,30.9,13.5z">
    </path>
   </g>
  </g>
 </g>
</svg>